<svg width="24" height="24" xmlns="http://www.w3.org/2000/svg"><path d="M21.83 11.442C21.653 11.179 17.441 5 12 5s-9.653 6.179-9.83 6.442L1.8 12l.374.558C2.347 12.821 6.559 19 12 19s9.653-6.179 9.83-6.442L22.2 12ZM12 17c-3.531 0-6.664-3.59-7.758-5C5.336 10.59 8.469 7 12 7s6.664 3.59 7.758 5c-1.094 1.41-4.227 5-7.758 5Z"/><path d="M12 8a4 4 0 1 0 4 4 4 4 0 0 0-4-4Zm0 6a2 2 0 1 1 2-2 2 2 0 0 1-2 2Z"/><path style="fill:#000;stroke:none;stroke-width:1px;stroke-linecap:butt;stroke-linejoin:miter;stroke-opacity:1;fill-opacity:1" d="m2.5 20.5 1 1 18-18-1-1z"/></svg>