<svg width="24" height="24" fill="none" xmlns="http://www.w3.org/2000/svg"><path fill-rule="evenodd" clip-rule="evenodd" d="M7.15 2.474A1 1 0 0 1 8 2h8a1 1 0 0 1 .894 1.447L16 5.237v5.18c2.068 1.304 3 3.608 3 6.583a1 1 0 0 1-1 1H6a1 1 0 0 1-1-1c0-2.975.932-5.28 3-6.583v-5.18l-.894-1.79a1 1 0 0 1 .043-.973ZM9.617 4l.276.553A1 1 0 0 1 10 5v6a1 1 0 0 1-.553.894C8.1 12.568 7.24 13.844 7.043 16h9.914c-.197-2.157-1.056-3.432-2.404-4.106A1 1 0 0 1 14 11V5c0-.155.036-.308.106-.447L14.382 4H9.618Z" fill="#000"/><path fill-rule="evenodd" clip-rule="evenodd" d="M11 17h2v4a1 1 0 1 1-2 0v-4Z" fill="#000"/></svg>