<svg version="1.1" id="ios7_x5F_arrows_1_" xmlns="http://www.w3.org/2000/svg" x="0" y="0" viewBox="0 0 128 128" style="enable-background:new 0 0 128 128" xml:space="preserve"><style>.st0{display:none}.st1{display:inline}</style><g id="_x32_7_1_"><path d="m126 15.2-5-1.3-9.4 35.2-35.2-9.5-1.3 5.1 40.1 10.7h.1z" id="_x33__28_"/><path d="M54.6 80.2 18.8 68.4l-5-1.6-13 40.1 5 1.7 11.3-35.1L53 85.2z" id="_x32__27_"/><path d="M65.2 18.3c21.8 0 40.1 15.3 44.7 35.7h5.2c-4.7-23.3-25.3-40.8-49.9-40.8-23.7 0-43.7 16.3-49.3 38.3h5.3c5.5-19.2 23.1-33.2 44-33.2zm0 91.9c-22.7 0-41.6-16.6-45.2-38.3h-5.2c3.7 24.6 24.8 43.4 50.4 43.4 22.8 0 42.1-15 48.6-35.7h-5.4c-6.2 17.8-23.2 30.6-43.2 30.6z" id="_x31__27_"/></g></svg>