<?xml version="1.0" encoding="UTF-8" standalone="no"?>
<!-- Created with Inkscape (http://www.inkscape.org/) -->

<svg
   width="160mm"
   height="80mm"
   viewBox="0 0 160 80"
   version="1.1"
   id="svg880"
   inkscape:version="1.1.2 (0a00cf5339, 2022-02-04, custom)"
   sodipodi:docname="adh6-logo.svg"
   xmlns:inkscape="http://www.inkscape.org/namespaces/inkscape"
   xmlns:sodipodi="http://sodipodi.sourceforge.net/DTD/sodipodi-0.dtd"
   xmlns="http://www.w3.org/2000/svg"
   xmlns:svg="http://www.w3.org/2000/svg">
  <sodipodi:namedview
     id="namedview882"
     pagecolor="#505050"
     bordercolor="#ffffff"
     borderopacity="1"
     inkscape:pageshadow="0"
     inkscape:pageopacity="0"
     inkscape:pagecheckerboard="1"
     inkscape:document-units="mm"
     showgrid="false"
     inkscape:zoom="1.1100555"
     inkscape:cx="289.62515"
     inkscape:cy="278.81488"
     inkscape:window-width="1920"
     inkscape:window-height="1063"
     inkscape:window-x="0"
     inkscape:window-y="0"
     inkscape:window-maximized="1"
     inkscape:current-layer="layer1"
     units="mm"
     showguides="true"
     inkscape:guide-bbox="true" />
  <defs
     id="defs877">
    <linearGradient
       x1="0"
       y1="0"
       x2="1"
       y2="0"
       gradientUnits="userSpaceOnUse"
       gradientTransform="matrix(69.999023,0,0,-69.999023,296.49692,197.32872)"
       spreadMethod="pad"
       id="linearGradient82">
      <stop
         style="stop-opacity:1;stop-color:#f77d3c"
         offset="0"
         id="stop78" />
      <stop
         style="stop-opacity:1;stop-color:#e8cc2e"
         offset="1"
         id="stop80" />
    </linearGradient>
    <clipPath
       clipPathUnits="userSpaceOnUse"
       id="clipPath92">
      <path
         d="M 0,279.109 H 434.526 V 0 H 0 Z"
         id="path90" />
    </clipPath>
    <linearGradient
       x1="0"
       y1="0"
       x2="1"
       y2="0"
       gradientUnits="userSpaceOnUse"
       gradientTransform="matrix(69.999512,0,0,-69.999512,47.11705,183.20445)"
       spreadMethod="pad"
       id="linearGradient114">
      <stop
         style="stop-opacity:1;stop-color:#6fa3e8"
         offset="0"
         id="stop110" />
      <stop
         style="stop-opacity:1;stop-color:#71cff1"
         offset="1"
         id="stop112" />
    </linearGradient>
  </defs>
  <g
     inkscape:label="Layer 1"
     inkscape:groupmode="layer"
     id="layer1">
    <g
       id="g66"
       style="display:inline"
       transform="matrix(0.50022253,0,0,-0.50022253,-23.379485,139.37522)"
       inkscape:export-filename="/home/heimdall/MiNET/adh6/frontend_angular/src/assets/adh6-logo.png"
       inkscape:export-xdpi="96"
       inkscape:export-ydpi="96">
      <g
         id="g68">
        <g
           id="g74">
          <g
             id="g76">
            <path
               d="m 302.097,202.228 c -3.781,-5.459 -5.6,-12.32 -5.6,-18.9 v 0 c 0,-19.459 15.54,-34.999 35,-34.999 v 0 c 19.46,0 34.998,15.54 34.998,34.999 v 0 c 0,11.62 -5.459,21.42 -13.999,28 v 0 l -8.4,-11.34 c 5.04,-3.78 8.26,-9.94 8.26,-16.66 v 0 c 0,-11.62 -9.379,-20.859 -20.859,-20.859 v 0 c -11.621,0 -20.86,9.239 -20.86,20.859 v 0 c 0,4.901 1.54,8.82 4.199,12.6 v 0 l 29.121,42.42 -11.62,7.98 z"
               style="fill:url(#linearGradient82);stroke:none"
               id="path84" />
          </g>
        </g>
      </g>
    </g>
    <g
       id="g86"
       style="display:inline"
       transform="matrix(0.50022253,0,0,-0.50022253,-23.379485,139.37522)"
       inkscape:export-filename="/home/heimdall/MiNET/adh6/frontend_angular/src/assets/adh6-logo.png"
       inkscape:export-xdpi="96"
       inkscape:export-ydpi="96">
      <g
         id="g88"
         clip-path="url(#clipPath92)">
        <g
           aria-label="dh"
           transform="matrix(1,0,0,-1,123.856,148.7549)"
           id="text96"
           style="font-weight:500;font-size:140px;font-family:'Apertura Md';-inkscape-font-specification:Apertura-Medium">
          <path
             d="m 41.3,-71.4 c -19.6,0 -35.14,16.1 -35.14,36.4 0,20.3 14.98,36.4 33.74,36.4 8.96,0 16.1,-3.08 20.58,-7.7 l 0.84,0.28 V 0 H 77 V -102.2 H 61.32 v 36.54 C 56.14,-69.3 49.98,-71.4 41.3,-71.4 Z m 1.96,59.64 c -11.62,0 -21.42,-10.22 -21.42,-23.24 0,-13.16 9.8,-23.24 21.42,-23.24 7.28,0 13.44,1.54 18.06,4.34 v 33.46 c -4.2,6.3 -10.78,8.68 -18.06,8.68 z"
             id="path296" />
          <path
             d="M 95.620002,0 H 111.3 v -47.88 c 4.2,-6.58 11.62,-10.36 19.74,-10.36 8.4,0 15.26,5.18 15.26,17.36 V 0 h 15.68 v -41.44 c 0,-19.88 -11.48,-29.96 -25.34,-29.96 -11.06,0 -19.46,4.2 -24.5,10.22 l -0.84,-0.28 V -102.2 H 95.620002 Z"
             id="path293" />
        </g>
      </g>
    </g>
    <g
       id="g98"
       style="display:inline"
       transform="matrix(0.50022253,0,0,-0.50022253,-23.379485,139.37522)"
       inkscape:export-filename="/home/heimdall/MiNET/adh6/frontend_angular/src/assets/adh6-logo.png"
       inkscape:export-xdpi="96"
       inkscape:export-ydpi="96">
      <g
         id="g100">
        <g
           id="g106">
          <g
             id="g108">
            <path
               d="m 47.117,183.205 c 0,-19.46 15.54,-35 35,-35 v 0 14.14 c -11.62,0 -20.86,9.239 -20.86,20.86 v 0 c 0,11.479 9.24,20.859 20.86,20.859 v 0 c 11.479,0 20.86,-9.38 20.86,-20.859 v 0 -35 h 14.139 v 35 c 0,19.46 -15.539,34.999 -34.999,34.999 v 0 c -19.46,0 -35,-15.539 -35,-34.999"
               style="fill:url(#linearGradient114);stroke:none"
               id="path116" />
          </g>
        </g>
      </g>
    </g>
  </g>
</svg>
