<?xml version="1.0" encoding="utf-8"?>
<!-- Generator: Adobe Illustrator 22.0.1, SVG Export Plug-In . SVG Version: 6.00 Build 0)  -->
<svg version="1.0" xmlns="http://www.w3.org/2000/svg" xmlns:xlink="http://www.w3.org/1999/xlink" x="0px" y="0px"
	 viewBox="0 0 434.5 279.1" style="enable-background:new 0 0 434.5 279.1;" xml:space="preserve">
<style type="text/css">
	.st0{display:none;}
	.st1{display:inline;fill:url(#SVGID_1_);}
	.st2{display:inline;fill:url(#SVGID_2_);}
	.st3{fill:#FFFFFF;}
	.st4{fill:#71CFF1;}
	.st5{fill:#F8F9FA;}
	.st6{fill:url(#SVGID_3_);}
	.st7{fill:url(#SVGID_4_);}
	.st8{display:inline;fill:#35393D;}
	.st9{display:inline;fill:#0B1017;}
	.st10{display:inline;fill:#6FA3E8;}
	.st11{display:inline;fill:#71CFF1;}
	.st12{display:inline;fill:url(#SVGID_5_);}
	.st13{display:inline;fill:#F8F9FA;}
	.st14{display:inline;fill:#ADB9C4;}
</style>
<g id="Cercle" class="st0">
	<linearGradient id="SVGID_1_" gradientUnits="userSpaceOnUse" x1="125.0731" y1="137.8252" x2="342.5731" y2="137.8252">
		<stop  offset="0" style="stop-color:#6FA3E8"/>
		<stop  offset="1" style="stop-color:#71CFF1"/>
	</linearGradient>
	<path class="st1" d="M233.8,29.1c-60.1,0-108.8,48.7-108.8,108.8s48.7,108.8,108.8,108.8s108.8-48.7,108.8-108.8
		S293.9,29.1,233.8,29.1z M241.8,230.5c-51.2,0-92.7-41.5-92.7-92.7s41.5-92.7,92.7-92.7c51.2,0,92.7,41.5,92.7,92.7
		S293,230.5,241.8,230.5z"/>
	<linearGradient id="SVGID_2_" gradientUnits="userSpaceOnUse" x1="125.0731" y1="137.8252" x2="342.5731" y2="137.8252">
		<stop  offset="0" style="stop-color:#6FA3E8"/>
		<stop  offset="1" style="stop-color:#71CFF1"/>
	</linearGradient>
	<path class="st2" d="M233.8,29.1c-60.1,0-108.8,48.7-108.8,108.8s48.7,108.8,108.8,108.8s108.8-48.7,108.8-108.8
		S293.9,29.1,233.8,29.1z M241.8,230.5c-51.2,0-92.7-41.5-92.7-92.7s41.5-92.7,92.7-92.7c51.2,0,92.7,41.5,92.7,92.7
		S293,230.5,241.8,230.5z"/>
</g>
<g id="Calque_11_-_copie_2">
	<polygon id="path4143_2_" class="st3" points="62.5,110.6 62.5,110.6 62.5,110.6 62.5,110.6 	"/>
	<g id="g4768_2_" transform="translate(-6.9308024,-10)">
		<g id="g4763_2_">
		</g>
	</g>
	<path class="st4" d="M209.6,103.5c0-0.5,0.3-2-0.9-3.7c-1.1-1.5-2.7-1.9-4.4-1.9c-0.1,0-0.1,0-0.2,0c-0.1,0-0.2,0-0.2,0
		c-1.6,0-3.3,0.4-4.4,1.9c-1.2,1.7-0.9,3.2-0.9,3.7c0,0.5-3.7,6.7-3.2,7.6c0.3,0.5,1.5-0.3,1.5,0.4c0,0.7-1.2,7.7,7.1,7.7
		c0,0,0,0,0.1,0c0,0,0,0,0.1,0c8.3,0,7.1-7,7.1-7.7c0-0.7,1.2,0.1,1.5-0.4C213.2,110.2,209.6,104,209.6,103.5z M206.8,101.6
		c0.4,0,0.8,0.4,0.8,0.8s-0.4,0.8-0.8,0.8c-0.4,0-0.8-0.4-0.8-0.8S206.3,101.6,206.8,101.6z M201.4,101.6c0.4,0,0.8,0.4,0.8,0.8
		s-0.4,0.8-0.8,0.8c-0.4,0-0.8-0.4-0.8-0.8S200.9,101.6,201.4,101.6z M208.8,116c-0.4,0.7-1.4,1.8-4.5,1.9c-0.1,0-0.1,0-0.2,0
		c-0.1,0-0.1,0-0.2,0c-3.1,0-4-1.2-4.5-1.9c-1.3-2.2-0.1-5.9,0.9-8.4c0.4-1-0.4-2.3,0.5-2.4c0,0,0.1,0,0.1,0c0.8,0,2.4,1.2,3.1,1.4
		c0.1,0,0.1,0,0.2,0s0.1,0,0.2,0c0.7-0.2,2.4-1.5,3.1-1.4c0.9,0.1,0.1,1.4,0.5,2.4C208.8,110.1,210.1,113.8,208.8,116z"/>
</g>
<g id="Calque_6_-_copie_2">
	<path class="st5" d="M148.9,103.3c5,0,9.7,0.9,14,2.8c4.3,1.9,8.1,4.4,11.4,7.7c3.3,3.3,5.9,7,7.8,11.4c1.9,4.3,2.8,9,2.8,14v36
		h-14.2v-36c0-3-0.6-5.8-1.7-8.4c-1.1-2.6-2.7-4.9-4.6-6.9c-2-2-4.3-3.5-7-4.6c-2.7-1.1-5.5-1.7-8.5-1.7c-3,0-5.8,0.6-8.4,1.7
		c-2.6,1.1-4.9,2.7-6.9,4.6c-2,2-3.5,4.3-4.6,6.9c-1.1,2.6-1.7,5.4-1.7,8.4v36H113v-36c0-3-0.6-5.8-1.7-8.4
		c-1.1-2.6-2.7-4.9-4.6-6.9c-2-2-4.3-3.5-7-4.6c-2.7-1.1-5.5-1.7-8.5-1.7c-3,0-5.8,0.6-8.4,1.7c-2.6,1.1-4.9,2.7-6.9,4.6
		c-2,2-3.5,4.3-4.6,6.9c-1.1,2.6-1.7,5.4-1.7,8.4v36H55.4v-36c0-5,0.9-9.7,2.8-14c1.9-4.3,4.4-8.1,7.7-11.4
		c3.3-3.3,7.1-5.8,11.4-7.7c4.4-1.9,9-2.8,13.9-2.8c6,0,11.4,1.3,16.4,3.9c5,2.6,9.1,6.2,12.4,10.6c3.3-4.5,7.5-8,12.5-10.6
		C137.6,104.6,143,103.3,148.9,103.3z"/>
	<path class="st5" d="M232.3,125.3c1.9-4.3,4.4-8.1,7.7-11.4c3.3-3.3,7.1-5.8,11.4-7.7c4.4-1.9,9-2.8,13.9-2.8c5,0,9.7,0.9,14,2.8
		c4.3,1.9,8.1,4.4,11.4,7.7c3.3,3.3,5.9,7,7.8,11.4c1.9,4.3,2.8,9,2.8,14v36h-14.2v-36c0-3-0.6-5.8-1.7-8.4
		c-1.1-2.6-2.7-4.9-4.6-6.9c-2-2-4.3-3.5-7-4.6c-2.7-1.1-5.5-1.7-8.5-1.7c-3,0-5.8,0.6-8.4,1.7c-2.6,1.1-4.9,2.7-6.9,4.6
		c-2,2-3.5,4.3-4.6,6.9c-1.1,2.6-1.7,5.4-1.7,8.4v36h-14.2v-36C229.5,134.3,230.4,129.6,232.3,125.3z"/>
	<path class="st5" d="M362.4,149.9l10.1,10.1l-5,5c-3.4,3.4-7.3,6-11.7,7.8c-4.4,1.8-9,2.7-13.8,2.7s-9.4-0.9-13.8-2.7
		c-4.4-1.8-8.3-4.4-11.7-7.8c-3.5-3.5-6.1-7.5-7.8-11.9c-1.7-4.4-2.6-8.9-2.6-13.5c0-4.6,0.9-9.1,2.6-13.4c1.7-4.4,4.3-8.3,7.8-11.8
		c3.5-3.5,7.5-6.2,11.9-7.9c4.4-1.8,8.9-2.6,13.5-2.6c4.6,0,9.1,0.9,13.5,2.6c4.4,1.8,8.4,4.4,11.9,7.9l5,5L332.7,159
		c4.1,2,8.3,2.7,12.9,2c4.5-0.7,8.5-2.7,11.9-6.2L362.4,149.9z M326.8,124.1c-4.3,4.3-6.4,9.4-6.4,15.4c0,3.3,0.7,6.5,2.2,9.4
		c1.3-1.3,3.2-3.2,5.8-5.8c2.6-2.6,5.4-5.4,8.3-8.3c2.9-2.9,5.8-5.7,8.5-8.4c2.7-2.7,4.8-4.7,6.3-6.2c-4.1-2-8.3-2.7-12.9-2.1
		C334.1,118.7,330.2,120.7,326.8,124.1z"/>
	<path class="st5" d="M420.4,160.9v14.2h-7c-4.9,0-9.5-0.9-13.9-2.8c-4.4-1.9-8.2-4.5-11.5-7.8c-3.3-3.3-5.9-7.1-7.8-11.5
		c-1.9-4.4-2.8-9-2.8-13.9V74.5h14.2v30.2h28.8V119h-28.8v20.2c0,3,0.6,5.8,1.7,8.5c1.1,2.7,2.7,5,4.6,7c2,2,4.3,3.5,7,4.6
		c2.7,1.1,5.5,1.7,8.5,1.7H420.4z"/>
	<linearGradient id="SVGID_3_" gradientUnits="userSpaceOnUse" x1="208.8308" y1="175.0478" x2="208.3466" y2="122.7602">
		<stop  offset="0" style="stop-color:#6FA3E8"/>
		<stop  offset="1" style="stop-color:#71CFF1"/>
	</linearGradient>
	<path class="st6" d="M203.1,170.7v-37.6h-7.5c-1.1,0-1.9-0.8-1.9-1.9v-6.6c0-1.1,0.8-1.9,1.9-1.9h13.9c2.6,0,4.6,2,4.6,4.6v37.6
		h7.5c1.1,0,1.9,0.8,1.9,1.9v6.6c0,1.1-0.8,1.9-1.9,1.9h-13.9C205.1,175.3,203.1,173.3,203.1,170.7z"/>
	<linearGradient id="SVGID_4_" gradientUnits="userSpaceOnUse" x1="14.2929" y1="139.5652" x2="264.9595" y2="139.5652">
		<stop  offset="0" style="stop-color:#6FA3E8"/>
		<stop  offset="1" style="stop-color:#71CFF1"/>
	</linearGradient>
	<path class="st7" d="M258.1,122.2c-1.3,0.5-2.4,1.2-3.5,2c0.7,5,1.1,10.2,1.1,15.4c0,59-47.8,106.8-106.8,106.8
		c-59,0-106.8-47.8-106.8-106.8c0-59,47.8-106.8,106.8-106.8c46.5,0,86,29.7,100.7,71.1c0.2-0.1,0.4-0.2,0.7-0.3
		c2.8-1.2,5.7-2,8.7-2.5c-16.3-50.4-63.5-86.8-119.3-86.8c-69.2,0-125.3,56.1-125.3,125.3s56.1,125.3,125.3,125.3
		S265,208.8,265,139.6c0-6.4-0.5-12.6-1.4-18.8C261.6,121,259.8,121.4,258.1,122.2z"/>
</g>
<g id="palette" class="st0">
	<rect x="321" y="-73.4" class="st8" width="112.2" height="73.4"/>
	<rect x="433.2" y="-73.4" class="st9" width="112.2" height="73.4"/>
	<rect x="96.7" y="-73.4" class="st10" width="112.2" height="73.4"/>
	<rect x="208.9" y="-73.4" class="st11" width="112.2" height="73.4"/>
	<linearGradient id="SVGID_5_" gradientUnits="userSpaceOnUse" x1="-15.4578" y1="-36.7018" x2="96.7091" y2="-36.7018">
		<stop  offset="0" style="stop-color:#6FA3E8"/>
		<stop  offset="1" style="stop-color:#71CFF1"/>
	</linearGradient>
	<rect x="-15.5" y="-73.4" class="st12" width="112.2" height="73.4"/>
	<rect x="433.2" y="-146.8" class="st13" width="112.2" height="73.4"/>
	<rect x="321" y="-146.8" class="st14" width="112.2" height="73.4"/>
</g>
</svg>
