<?xml version="1.0" encoding="utf-8"?>
<!-- Generator: Adobe Illustrator 26.3.1, SVG Export Plug-In . SVG Version: 6.00 Build 0)  -->
<svg version="1.1" id="Calque_1" xmlns="http://www.w3.org/2000/svg" xmlns:xlink="http://www.w3.org/1999/xlink" x="0px" y="0px"
	 viewBox="0 0 434.5 279.1" style="enable-background:new 0 0 434.5 279.1;" xml:space="preserve">
<style type="text/css">
	.st0{fill:url(#SVGID_1_);}
	.st1{fill:url(#SVGID_00000015342039391553877570000008780315153208991924_);}
	.st2{fill:url(#SVGID_00000152240921243287216380000010246059490893267631_);}
	.st3{fill:url(#SVGID_00000008113709229097943860000011831841215791183291_);}
	.st4{fill:url(#SVGID_00000091700285115618524060000012307997413370029491_);}
	.st5{fill:url(#SVGID_00000119086848973232132860000011277903607945887672_);}
	.st6{fill:#FFFFFF;}
	.st7{fill:#71CFF1;}
	.st8{fill:#35393D;stroke:#F7F8F8;stroke-miterlimit:10;}
	.st9{fill:url(#SVGID_00000111914111557437159490000014380702383414231452_);stroke:#F7F8F8;stroke-miterlimit:10;}
	.st10{fill:none;}
	.st11{fill:url(#SVGID_00000085942441432790380920000006078809949165901732_);}
</style>
<g id="Calque_1_00000126315830977326124270000015083194471441371060_">
	<g id="Calque_6_-_copie_2">
		<g>
			<g>
				
					<radialGradient id="SVGID_1_" cx="172.3381" cy="79.2464" r="12.9829" gradientTransform="matrix(1 0 0 -1 0 282)" gradientUnits="userSpaceOnUse">
					<stop  offset="4.469286e-03" style="stop-color:#FF0011"/>
					<stop  offset="1" style="stop-color:#BD1211"/>
				</radialGradient>
				<path class="st0" d="M183.4,194.9c-2-2.1-4.8-2.6-7.6-2.5c0-0.8-0.5-1.6-1.5-1.7c-6.6-1.2-12.9,2.8-15.2,9.1
					c-2.4,6.9,4.1,13.4,10.4,15c1.3,0.3,2.5,0.4,3.7,0.1c1.9-0.1,3.7-0.7,5.2-1.3c3.5-1.6,6-5.2,7-8.8
					C186.4,201.4,185.9,197.5,183.4,194.9z"/>
				
					<radialGradient id="SVGID_00000090295975143721951970000007551585105456746641_" cx="194.1073" cy="94.7988" r="17.6659" gradientTransform="matrix(1 0 0 -1 0 282)" gradientUnits="userSpaceOnUse">
					<stop  offset="4.469286e-03" style="stop-color:#FF0011"/>
					<stop  offset="1" style="stop-color:#BD1211"/>
				</radialGradient>
				<path style="fill:url(#SVGID_00000090295975143721951970000007551585105456746641_);" d="M211.2,181.9
					c-1.7-8.1-10.5-13-18.3-12.7c-0.9,0-2,0.3-3,0.7c-0.5,0-1,0.1-1.6,0.3c-6.6,1.5-10,8.4-11,14.5c-0.5,0.7-0.4,1.7,0.3,2.1
					c0.8,1.5,2.9,1.9,4,0.8c3,0.7,5.7,2.1,7.9,4.6c3,3.6,1.7,7.3,2.4,11.4c0.3,2.3,3,2.1,4.4,0.9c0.5,0.4,1.2,0.5,2,0.1
					c5.7-2.5,10.9-6.9,12.1-13.3C211.3,188.3,211.7,184.9,211.2,181.9z"/>
				<path d="M197.1,203c0.1,0,0.1-0.1,0-0.1"/>
				
					<radialGradient id="SVGID_00000007388384560583617350000011053628268432127672_" cx="153.503" cy="97.1298" r="20.0174" gradientTransform="matrix(1 0 0 -1 0 282)" gradientUnits="userSpaceOnUse">
					<stop  offset="4.469286e-03" style="stop-color:#FF0011"/>
					<stop  offset="1" style="stop-color:#BD1211"/>
				</radialGradient>
				<path style="fill:url(#SVGID_00000007388384560583617350000011053628268432127672_);" d="M162.5,164.6c-6-2.3-13.2,0.7-17.9,4.2
					c-5.4,4.1-9.3,10.1-10,16.9c-0.7,6.4,3.2,11.8,8.4,15.1c0.4,1.7,1.2,3.3,2.8,3.9c1,0.4,2.3-0.4,2.5-1.5c0-0.1,0-0.3,0.1-0.5h0.1
					c0.1,0.7,0.1,1.3,0.3,1.9c0.5,2.1,3.6,1.6,3.6-0.5c0.1-4.9,1.2-9.7,4.4-13.7c1.7-2,4-3.5,6.4-4.2c2.4-0.9,5-0.5,7.2-2
					c0.1,0,0.1-0.1,0.3-0.3c0.9,0.1,1.9-0.5,1.9-1.6C172.3,175.3,170.1,167.4,162.5,164.6z"/>
				
					<radialGradient id="SVGID_00000143616462726217756030000000891798836123607442_" cx="135.308" cy="47.4781" r="27.2948" gradientTransform="matrix(1 0 0 -1 0 282)" gradientUnits="userSpaceOnUse">
					<stop  offset="1.385225e-07" style="stop-color:#B3FF7F"/>
					<stop  offset="0.3268" style="stop-color:#00BF07"/>
					<stop  offset="1" style="stop-color:#007F0B"/>
				</radialGradient>
				<path style="fill:url(#SVGID_00000143616462726217756030000000891798836123607442_);" d="M161.5,220.9c-2.4-2.8-5.2-3.5-6.4-7.3
					c-0.4-1.5-1.6-2.3-3-2.4c-4.4-0.1-7.2-2.6-11.2-4.2c-1.3-0.5-2.3,0.9-2,2c-6.8,2.9-12.4,2.8-19.3,0.5c-2.8-0.9-4.8,1.9-4.3,4.2
					c1.2,6.8,1,11.3-5.4,15.1c-1.3,0.8-2.1,2.9-1,4.2c2.8,3.9,4.4,7.5,4.5,11.3v0.1c0,0.3,0,0.5,0.1,0.8c0,4-1.6,8-4.6,12.1
					c-2,2.6,1.9,6.1,4.4,4.4c9.6-6.4,21.1-10.4,30.8-1.9c2.9,2.5,6.6-0.7,5.2-4c-2.8-6.5-2.6-12.6,4.6-15.8c1.3-0.5,1.9-2.4,1.5-3.7
					c-1.2-5,2.3-6.1,4.9-8.5c0.8-0.7,0.9-1.6,0.8-2.5C162.3,224.7,162.8,222.5,161.5,220.9z"/>
				
					<radialGradient id="SVGID_00000116945635083015967460000011724857357979266955_" cx="202.8053" cy="44.3564" r="28.8325" gradientTransform="matrix(1 0 0 -1 0 282)" gradientUnits="userSpaceOnUse">
					<stop  offset="1.385225e-07" style="stop-color:#B3FF7F"/>
					<stop  offset="0.3268" style="stop-color:#00BF07"/>
					<stop  offset="1" style="stop-color:#007F0B"/>
				</radialGradient>
				<path style="fill:url(#SVGID_00000116945635083015967460000011724857357979266955_);" d="M230.4,233c-4.3,0.4-16.6-2.4-12.1-8.4
					c1.6-2.3-1-4.5-3.2-4.1c-6.6,1.2-9.3-3.7-13.9-6.6c-1.5-0.9-2.9,0-3.5,1.3c0.1-0.7,0.3-1.3,0.1-2.1c-0.3-1.7-1.7-2.8-3.5-2
					c-3.2,1.6-4.4,5.6-7.5,7.7c-3.3,2.1-7.6,2-11.2,1c-1-0.3-1.7,0.3-2.1,0.8c-0.5,0.1-1,0.7-0.9,1.3c2.1,6.5,3.3,12-0.3,18.4
					c-1.5,2.5,0.9,5,3.6,4.6c2.9-0.5,5.4-0.3,7.4,0.7c0.7,0.9,1.6,1.5,2.4,1.7c2.1,2.1,3.3,5.3,3.6,9.1c0.1,2,2,3.7,4,3
					c11.7-3.7,18.2,0,28.4,4.8c1.7,0.8,3.6-0.4,3.6-2.1c0.7-0.5,1-1.7,0.3-2.5c-7.6-7.5-4.5-17.4,5.4-20.3
					C234.7,238.2,234.2,232.6,230.4,233z"/>
				
					<radialGradient id="SVGID_00000066499275582622146490000006011434252118292406_" cx="162.7857" cy="163.8512" r="111.8803" gradientTransform="matrix(1 0 0 -1 0 282)" gradientUnits="userSpaceOnUse">
					<stop  offset="1.385225e-07" style="stop-color:#B3FF7F"/>
					<stop  offset="0.452" style="stop-color:#009507"/>
					<stop  offset="1" style="stop-color:#00390B"/>
				</radialGradient>
				<path style="fill:url(#SVGID_00000066499275582622146490000006011434252118292406_);" d="M255.1,85.3c5.3-10.1-0.1-20-12.9-21.8
					c1-10.5-1.5-23.1-10.6-29.3c-10.4-7-20.8-4.1-30.2,2.5c-5.4-11.8-17.5-10.6-28.3-4.5c-0.4,0.1-0.8,0.3-1.2,0.4
					c-1-31.7-53-17.5-61,9.8c-18.6-12-44,5.3-37.7,27.6c-27-9.3-41.9,30-17.9,43.4c-10.9,9-12.5,24.8-1.3,34.4
					c0,0.3,0.1,0.5,0.1,0.7c-0.7,0.4-1.2,0.9-1.6,1.5c-11.9,4.5-7.3,24.3,6.3,26.4c-6,11.1,3.3,22.3,16.2,21.1
					c-0.3,2.9,0,5.6,0.7,8.1c0.1,1.9,0.4,3.6,0.9,5c2.8,8.5,11.7,12.9,20.2,10.6c1.9-0.5,3.3-1.3,4.6-2.3c1,0.8,2.6,0.8,3.3-0.5
					c2.9-6.4,5.2-11.8,4.9-18.2c4.9,1.2,9.9,2.1,14.6,4.1c3.2,1.3,6.1-1.3,4.6-4.6c-3.9-8.2-4.9-16.9-4-25.9
					c0.1-1.3-0.5-2.3-1.5-2.8c0-0.8,0-1.6,0-2.4c-0.4-3.9-2.4-7.3-5.6-9.7c-4.4-3.2-9.2-3.7-13.7-2.5c0.9-6-1.6-10.5-7.3-13
					c-0.1-0.3-0.4-0.5-0.5-0.8c6-9.5,6.4-21.9-3.3-28c0.8-0.4,1.6-0.7,2.4-1c2.6-1.3,5.4-3.3,7.2-5.9c3.2-5,1.5-9.4-2-13
					c6-3.6,12.4-10.2,11.2-16.6c1,1,2.1,2,3.3,2.8c0.7,0.8,1.7,1.5,2.8,1.6c11.5,5.6,23.7-3.5,25.4-17.5c7.2,5.9,16.2,6.1,23.5,0.4
					c0.1,0.3,0.3,0.4,0.4,0.7c3.9,5.3,10.1,10.5,17.1,9.9c3.6,0.3,7.3-0.9,11.2-3.7c-1.9,10.4,9.8,18.2,20.3,15.4
					c-1.2,8.2,0.7,16.6,6.3,23.1c2.5,3,6.3,4.5,9.9,4.8c-3.6,6.8-2.8,14.3,3.6,20.3c-4.9,5-7.7,12.4-6,18.2
					c-1.3,0.3-2.6,0.8-3.9,1.7c-3.5,2.6-5.3,7.4-5,11.8c-0.9,0.7-1.9,1.2-2.9,1.3c-2.4,0.4-3,3.7-1.3,5.3c7.3,7,10.1,22-0.4,27.6
					c-2.4,1.3-0.7,5.3,1.9,4.4c0,0,0,0,0.1,0c0.1,0.7,0.5,1.5,1,2c3.3,3.3,9.7,0.8,12.8-1.6c2.1-1.6,3-4,3.6-6.5
					c6.6,9.5,19.1,10,28.3,0.9c9.8-9.5,9.9-24.3,0.7-32.8c11.9-6.9,14.9-23.6,2.8-30.5C293,124.3,283.7,87.3,255.1,85.3z M51.2,131
					c0.4-5.6,3.5-10.7,9.4-14.5C56.2,120.2,52.6,125.4,51.2,131z"/>
			</g>
		</g>
	</g>
	<g id="Calque_11_-_copie_2">
		<path id="path4143_2_" class="st6" d="M92.5,109.5L92.5,109.5L92.5,109.5z"/>
		<g id="g4768_2_" transform="translate(-6.9308024,-10)">
			<g id="g4763_2_">
			</g>
		</g>
		<path class="st7" d="M215.3,103.5c0-0.4,0.3-1.7-0.8-3.1c-0.9-1.3-2.3-1.6-3.7-1.6c-0.1,0-0.1,0-0.2,0c-0.1,0-0.2,0-0.2,0
			c-1.3,0-2.8,0.3-3.7,1.6c-1,1.4-0.8,2.7-0.8,3.1s-3.1,5.6-2.7,6.3c0.3,0.4,1.3-0.3,1.3,0.3c0,0.6-1,6.4,5.9,6.4c0,0,0,0,0.1,0
			c0,0,0,0,0.1,0c6.9,0,5.9-5.8,5.9-6.4s1,0.1,1.3-0.3C218.3,109.1,215.3,103.9,215.3,103.5z M212.9,101.9c0.3,0,0.7,0.3,0.7,0.7
			c0,0.3-0.3,0.7-0.7,0.7c-0.3,0-0.7-0.3-0.7-0.7C212.3,102.3,212.5,101.9,212.9,101.9z M208.4,101.9c0.3,0,0.7,0.3,0.7,0.7
			c0,0.3-0.3,0.7-0.7,0.7c-0.3,0-0.7-0.3-0.7-0.7C207.7,102.3,208,101.9,208.4,101.9z M214.6,114c-0.3,0.6-1.2,1.5-3.8,1.6
			c-0.1,0-0.1,0-0.2,0c-0.1,0-0.1,0-0.2,0c-2.6,0-3.3-1-3.8-1.6c-1.1-1.8-0.1-4.9,0.8-7c0.3-0.8-0.3-1.9,0.4-2h0.1
			c0.7,0,2,1,2.6,1.2c0.1,0,0.1,0,0.2,0c0.1,0,0.1,0,0.2,0c0.6-0.2,2-1.3,2.6-1.2c0.8,0.1,0.1,1.2,0.4,2
			C214.6,109,215.7,112.1,214.6,114z"/>
	</g>
</g>
<g id="minet">
	<path class="st8" d="M164.6,103.4c4.2,0,8.1,0.8,11.7,2.3c3.6,1.6,6.8,3.7,9.5,6.4c2.8,2.8,4.9,5.8,6.5,9.5
		c1.6,3.6,2.3,7.5,2.3,11.7v30h-11.9v-30c0-2.5-0.5-4.8-1.4-7s-2.3-4.1-3.8-5.8c-1.7-1.7-3.6-2.9-5.8-3.8c-2.3-0.9-4.6-1.4-7.1-1.4
		s-4.8,0.5-7,1.4s-4.1,2.3-5.8,3.8c-1.7,1.7-2.9,3.6-3.8,5.8c-0.9,2.2-1.4,4.5-1.4,7v30h-11.9v-30c0-2.5-0.5-4.8-1.4-7
		s-2.3-4.1-3.8-5.8c-1.7-1.7-3.6-2.9-5.8-3.8c-2.3-0.9-4.6-1.4-7.1-1.4s-4.8,0.5-7,1.4s-4.1,2.3-5.8,3.8c-1.7,1.7-2.9,3.6-3.8,5.8
		c-0.9,2.2-1.4,4.5-1.4,7v30H86.5v-30c0-4.2,0.8-8.1,2.3-11.7c1.6-3.6,3.7-6.8,6.4-9.5c2.8-2.8,5.9-4.8,9.5-6.4
		c3.7-1.6,7.5-2.3,11.6-2.3c5,0,9.5,1.1,13.7,3.3c4.2,2.2,7.6,5.2,10.4,8.8c2.8-3.8,6.3-6.7,10.4-8.8
		C155.2,104.4,159.7,103.4,164.6,103.4z"/>
	<path class="st8" d="M234.2,121.7c1.6-3.6,3.7-6.8,6.4-9.5s5.9-4.8,9.5-6.4c3.7-1.6,7.5-2.3,11.6-2.3c4.2,0,8.1,0.8,11.7,2.3
		c3.6,1.6,6.8,3.7,9.5,6.4c2.8,2.8,4.9,5.8,6.5,9.5c1.6,3.6,2.3,7.5,2.3,11.7v30h-11.9v-30c0-2.5-0.5-4.8-1.4-7s-2.3-4.1-3.8-5.8
		c-1.7-1.7-3.6-2.9-5.8-3.8c-2.3-0.9-4.6-1.4-7.1-1.4s-4.8,0.5-7,1.4c-2.2,0.9-4.1,2.3-5.8,3.8c-1.7,1.7-2.9,3.6-3.8,5.8
		c-0.9,2.2-1.4,4.5-1.4,7v30h-11.9v-30C231.9,129.2,232.6,125.3,234.2,121.7z"/>
	<path class="st8" d="M342.8,142.3l8.4,8.4l-4.2,4.2c-2.8,2.8-6.1,5-9.8,6.5c-3.7,1.5-7.5,2.3-11.5,2.3s-7.8-0.8-11.5-2.3
		s-6.9-3.7-9.8-6.5c-2.9-2.9-5.1-6.3-6.5-9.9c-1.4-3.7-2.2-7.4-2.2-11.3s0.8-7.6,2.2-11.2c1.4-3.7,3.6-6.9,6.5-9.8s6.3-5.2,9.9-6.6
		c3.7-1.5,7.4-2.2,11.3-2.2c3.8,0,7.6,0.8,11.3,2.2c3.7,1.5,7,3.7,9.9,6.6l4.2,4.2l-33,33c3.4,1.7,6.9,2.3,10.8,1.7
		c3.8-0.6,7.1-2.3,9.9-5.2L342.8,142.3z M313.1,120.7c-3.6,3.6-5.3,7.8-5.3,12.9c0,2.8,0.6,5.4,1.8,7.8c1.1-1.1,2.7-2.7,4.8-4.8
		c2.2-2.2,4.5-4.5,6.9-6.9c2.4-2.4,4.8-4.8,7.1-7c2.3-2.3,4-3.9,5.3-5.2c-3.4-1.7-6.9-2.3-10.8-1.8
		C319.2,116.2,315.9,117.9,313.1,120.7z"/>
	<path class="st8" d="M391.2,151.4v11.9h-5.8c-4.1,0-7.9-0.8-11.6-2.3c-3.7-1.6-6.8-3.8-9.6-6.5s-4.9-5.9-6.5-9.6
		c-1.6-3.7-2.3-7.5-2.3-11.6v-54h11.9v25.2h24v11.9h-24v16.9c0,2.5,0.5,4.8,1.4,7.1s2.3,4.2,3.8,5.8c1.7,1.7,3.6,2.9,5.8,3.8
		c2.3,0.9,4.6,1.4,7.1,1.4L391.2,151.4L391.2,151.4z"/>
	
		<radialGradient id="SVGID_00000072271244915338904680000006646717637592027829_" cx="214.4214" cy="140.4937" r="17.8537" gradientTransform="matrix(1 0 0 -1 0 282)" gradientUnits="userSpaceOnUse">
		<stop  offset="4.469286e-03" style="stop-color:#FF0011"/>
		<stop  offset="1" style="stop-color:#BD1211"/>
	</radialGradient>
	<path style="fill:url(#SVGID_00000072271244915338904680000006646717637592027829_);stroke:#F7F8F8;stroke-miterlimit:10;" d="
		M209.8,159.6v-31.4h-6.3c-0.9,0-1.6-0.7-1.6-1.6v-5.5c0-0.9,0.7-1.6,1.6-1.6h11.6c2.2,0,3.8,1.7,3.8,3.8v31.4h6.3
		c0.9,0,1.6,0.7,1.6,1.6v5.5c0,0.9-0.7,1.6-1.6,1.6h-11.6C211.5,163.5,209.8,161.8,209.8,159.6z"/>
</g>
<g id="Calque_3">
	<g>
		<path class="st10" d="M209.8,101.7c0.3,0,0.6,0,0.9,0C210.4,101.7,210.1,101.7,209.8,101.7"/>
		<path class="st10" d="M215,100.9c0.1,0,0.1-0.1,0.2-0.1C215.1,100.8,215.1,100.8,215,100.9"/>
		<path class="st10" d="M209.9,98.9L209.9,98.9L209.9,98.9"/>
		<path class="st10" d="M215.5,100.2c0-0.1-0.1-0.3-0.1-0.4C215.4,99.9,215.5,100,215.5,100.2"/>
		<path class="st10" d="M206.1,99c0,0.1,0,0.2-0.1,0.2C206,99.2,206,99.1,206.1,99"/>
		<path class="st10" d="M206.2,100.8c0-0.1,0-0.1-0.1-0.2c0,0.1,0.1,0.2,0.2,0.3C206.2,100.9,206.2,100.8,206.2,100.8"/>
		<path class="st10" d="M214.6,96.5c0.2,0.1,0.3,0.2,0.4,0.4c-0.2-0.2-0.4-0.3-0.6-0.4C214.6,96.5,214.6,96.5,214.6,96.5"/>
		<path class="st10" d="M214.1,98.2C214.2,98.2,214.2,98.3,214.1,98.2C214.2,98.3,214.2,98.2,214.1,98.2z"/>
		<path class="st10" d="M213.4,98.6c0.1,0,0.1,0,0.2-0.1C213.5,98.5,213.4,98.6,213.4,98.6L213.4,98.6"/>
		<path class="st10" d="M206.5,98.6c-0.1,0-0.1,0-0.2,0C206.4,98.6,206.4,98.6,206.5,98.6"/>
		<path class="st10" d="M214.8,98.8c-0.2-0.1-0.4-0.1-0.6-0.1C214.4,98.6,214.6,98.6,214.8,98.8"/>
		<path class="st10" d="M215.2,99.5c-0.1-0.1-0.1-0.2-0.2-0.3C215.1,99.3,215.2,99.4,215.2,99.5"/>
		<path class="st10" d="M208.5,101.6c0.3,0,0.6,0.1,0.8,0.1C209,101.7,208.8,101.6,208.5,101.6"/>
		<path class="st10" d="M214.1,101.2c-0.1,0-0.3,0.1-0.4,0.1C213.8,101.3,214,101.2,214.1,101.2z"/>
		<path class="st10" d="M210.7,101.7h0.1C210.8,101.7,210.6,101.7,210.7,101.7"/>
		<path class="st10" d="M215.5,100.2C215.5,100.1,215.5,100.3,215.5,100.2C215.5,100.3,215.5,100.2,215.5,100.2"/>
		<path class="st10" d="M206.9,98.4h0.1C206.9,98.4,206.9,98.4,206.9,98.4z"/>
		<path class="st10" d="M208.5,99c-0.5-0.1-0.9-0.2-1.4-0.3C207.6,98.8,208.1,98.9,208.5,99"/>
		<path class="st10" d="M209.3,99.2L209.3,99.2L209.3,99.2"/>
		<path class="st10" d="M206.3,101L206.3,101"/>
		<path class="st10" d="M207,98.7c-0.1,0-0.2,0-0.3-0.1C206.7,98.7,206.9,98.7,207,98.7"/>
		<path class="st10" d="M213.4,98.9c-0.5,0.1-1,0.3-1.5,0.3C212.4,99.2,212.9,99,213.4,98.9"/>
		<path class="st10" d="M207,98.7L207,98.7L207,98.7"/>
		<path class="st10" d="M206.3,101c0.1,0.1,0.3,0.2,0.4,0.2C206.6,101.1,206.4,101.1,206.3,101"/>
		<path class="st10" d="M215.6,98.4c0.1,0.1,0.2,0.1,0.3,0.1c-0.2-0.1-0.3-0.1-0.4-0.3C215.6,98.3,215.6,98.3,215.6,98.4"/>
		<path class="st10" d="M215.3,97.4C215.3,97.4,215.3,97.3,215.3,97.4"/>
		<path class="st10" d="M215.8,96.8C215.7,96.8,215.8,96.7,215.8,96.8"/>
		<path class="st10" d="M215.4,96.6c0,0,0.1-0.1,0.2-0.1C215.5,96.5,215.5,96.6,215.4,96.6z"/>
		<path class="st10" d="M213.6,96.4c-0.2,0.1-0.3,0.3-0.3,0.5c0-0.3,0.3-0.5,0.5-0.6C213.8,96.3,213.7,96.3,213.6,96.4"/>
		<path class="st10" d="M214.1,98.2c-0.1-0.3-0.3-0.4-0.5-0.6C213.8,97.8,214,98,214.1,98.2"/>
		<path class="st10" d="M216,96.7L216,96.7L216,96.7z"/>
		<path class="st10" d="M216.6,98.5c0.1,0,0.2-0.1,0.3-0.2C216.8,98.4,216.7,98.4,216.6,98.5"/>
		<path class="st10" d="M216.6,96.7c-0.2-0.1-0.3-0.1-0.5-0.1C216.3,96.6,216.4,96.6,216.6,96.7"/>
		<path class="st10" d="M217.2,97.5c0-0.1-0.1-0.2-0.1-0.3c0.1,0.2,0.1,0.3,0.1,0.5C217.2,97.6,217.2,97.5,217.2,97.5"/>
		<path class="st10" d="M216,96.6C216.1,96.6,216.1,96.6,216,96.6C216.1,96.6,216.1,96.6,216,96.6z"/>
		<path class="st10" d="M207,98.4L207,98.4C207.1,98.3,207,98.4,207,98.4z"/>
		<path class="st10" d="M213.9,94.4c0.2,0.1,0.3,0.2,0.5,0.3C214.2,94.6,214.1,94.5,213.9,94.4z"/>
		<path class="st10" d="M212.7,94C212.6,94,212.7,94,212.7,94"/>
		<path class="st10" d="M207.5,98.5c0.1,0,0.2,0,0.3,0.1c-0.2,0-0.4-0.1-0.6-0.1C207.3,98.4,207.4,98.5,207.5,98.5"/>
		<path class="st10" d="M215.8,96.4c-0.1,0-0.1,0.1-0.2,0.1C215.7,96.4,215.8,96.4,215.8,96.4"/>
		<path class="st10" d="M207.8,96c0.1-0.1,0.2-0.3,0.2-0.4C208,95.7,207.9,95.9,207.8,96z"/>
		<path class="st10" d="M210.9,99c0.5,0,1.1-0.1,1.6-0.2C212,98.9,211.4,99,210.9,99"/>
		<path class="st10" d="M215.5,95.9C215.5,96,215.5,96,215.5,95.9c-0.1-0.1-0.1-0.3-0.3-0.5C215.3,95.6,215.4,95.8,215.5,95.9"/>
		<path class="st10" d="M209.7,94.2c-0.6,0.2-1.1,0.6-1.5,1.1C208.6,94.8,209.1,94.4,209.7,94.2"/>
		
			<radialGradient id="SVGID_00000152235591108732260180000009429893471437577407_" cx="234.508" cy="244.2987" r="3.3709" gradientTransform="matrix(1.0084 1.242270e-02 8.759118e-02 -1.1474 -46.4228 373.8499)" gradientUnits="userSpaceOnUse">
			<stop  offset="4.469286e-03" style="stop-color:#FF0011"/>
			<stop  offset="1" style="stop-color:#BD1211"/>
		</radialGradient>
		<path style="fill:url(#SVGID_00000152235591108732260180000009429893471437577407_);" d="M215.6,96.5c0,0,0.1,0,0.1-0.1
			c-0.4-0.9-0.9-1.6-1.8-2c-0.9-0.4-1.8-0.6-2.8-0.5c-0.6,0-1.2,0.1-1.7,0.4s-0.9,0.7-1.3,1.1c-0.6,0.9-0.9,1.9-1.1,2.9
			c1.2,0.2,2.4,0.6,3.7,0.6c0.6,0,1.2-0.1,1.8-0.2c0.5-0.1,1.1-0.3,1.6-0.4c-0.1-0.6-1-0.8-0.9-1.5c0.1-0.3,0.3-0.6,0.7-0.6
			c0.5,0,0.9,0.4,1.2,0.7C215.3,96.8,215.4,96.6,215.6,96.5"/>
		<path class="st6" d="M217.2,97.7c0.2-1.1-1.3-1.5-1.8-0.6c-0.2,0.5,0,1,0.4,1.3C216.3,98.8,217.1,98.4,217.2,97.7"/>
		<path d="M217.5,97.3c-0.1-0.7-0.8-1.1-1.5-1c-0.2-0.5-0.4-1-0.8-1.3c-0.4-0.4-0.8-0.7-1.3-0.9c-1-0.5-2.2-0.6-3.3-0.4
			c-1,0.2-1.9,0.5-2.6,1.4c-0.7,0.9-1.1,2.1-1.3,3.2c-0.2,0-0.5,0-0.7,0.1c-0.2,0.2-0.3,0.5-0.3,0.8c-0.1,0.6-0.1,1.6,0.5,2
			s1.4,0.5,2.1,0.6c0.7,0.1,1.4,0.1,2.1,0.1c0.8,0,1.5-0.1,2.3-0.2c0.7-0.1,1.5-0.2,2.2-0.5c0.6-0.3,1.1-0.7,0.8-1.5
			c-0.2-0.6-0.6-1.4-1.2-1.5c0-0.3-0.2-0.5-0.4-0.7s-0.5-0.4-0.5-0.6c0-0.3,0.4-0.4,0.6-0.3c0.3,0.1,0.6,0.4,0.8,0.6v-0.1
			c-0.3,0.8,0.2,1.7,1,1.7C216.9,99,217.6,98.2,217.5,97.3 M207,98.4h-0.1C206.9,98.4,206.9,98.4,207,98.4z M214.2,98.7
			c0.7-0.1,0.9,0.6,1.1,1.1c0.1,0.3,0.2,0.6,0,0.9s-0.6,0.4-0.9,0.5c-1.3,0.4-2.6,0.5-3.9,0.6c-0.7,0-1.4,0-2.1-0.1
			c-0.4-0.1-0.7-0.1-1.1-0.2c-0.3-0.1-0.7-0.1-1-0.3c-0.4-0.3-0.5-1.1-0.4-1.5c0-0.3,0.1-0.6,0.3-0.8c0.2-0.2,0.5-0.1,0.7,0
			c1.3,0.2,2.5,0.6,3.8,0.6c0.4,0,0.9,0,1.3-0.1C212.7,99.1,213.5,98.8,214.2,98.7 M215.4,96.6c-0.1,0.1-0.2,0.2-0.3,0.3
			c-0.3-0.3-0.7-0.6-1.1-0.7c-0.4,0-0.7,0.2-0.8,0.6c-0.1,0.7,0.8,0.9,0.9,1.5c-0.5,0.1-1.1,0.3-1.6,0.4c-0.6,0.1-1.2,0.2-1.8,0.2
			c-1.3,0-2.5-0.4-3.7-0.6c0.2-1,0.5-2.1,1.1-2.9c0.3-0.5,0.8-0.9,1.3-1.2c0.5-0.2,1.1-0.3,1.7-0.4c0.9-0.1,1.9,0.1,2.7,0.5
			c0.9,0.4,1.4,1.1,1.8,2c0,0,0.1,0,0.1-0.1C215.7,96.4,215.5,96.5,215.4,96.6 M217,98.1c-0.3,0.5-1.1,0.6-1.5,0.1
			c-0.3-0.3-0.3-0.8-0.1-1.2c0.2-0.3,0.4-0.4,0.7-0.4C216.9,96.6,217.4,97.5,217,98.1"/>
		<path class="st6" d="M213.8,98.8c-1.1,0.3-2.2,0.6-3.4,0.5c-0.5,0-1.1-0.1-1.6-0.2c-0.7-0.1-1.4-0.4-2.2-0.4c-0.5,0-0.6,0.6-0.6,1
			c0,0.3,0,0.7,0.1,1c0.1,0.4,0.3,0.5,0.7,0.6c1.3,0.5,2.7,0.5,4.1,0.4c0.7,0,1.3-0.1,2-0.2s1.4-0.2,2.1-0.5
			c0.3-0.1,0.6-0.3,0.6-0.7c0-0.3-0.2-0.5-0.3-0.8c-0.1-0.2-0.2-0.5-0.4-0.7C214.5,98.5,214.1,98.7,213.8,98.8"/>
	</g>
</g>
</svg>
